<svg width="79" height="79" viewBox="0 0 79 79" fill="none" xmlns="http://www.w3.org/2000/svg">
<g filter="url(#filter0_d_2_16)">
<rect x="4" width="71" height="71" rx="10" fill="#5956E8"/>
<path d="M50.2917 20.0834C49.8828 20.0834 49.4907 20.2458 49.2015 20.5349C48.9124 20.824 48.75 21.2162 48.75 21.625V23.1667H41.0417C40.6328 23.1667 40.2407 23.3291 39.9515 23.6183C39.6624 23.9074 39.5 24.2995 39.5 24.7084V46.2917C39.5 46.7006 39.6624 47.0927 39.9515 47.3818C40.2407 47.671 40.6328 47.8334 41.0417 47.8334H48.75V49.375C48.75 49.7839 48.9124 50.176 49.2015 50.4652C49.4907 50.7543 49.8828 50.9167 50.2917 50.9167C50.7005 50.9167 51.0927 50.7543 51.3818 50.4652C51.6709 50.176 51.8333 49.7839 51.8333 49.375V21.625C51.8333 21.2162 51.6709 20.824 51.3818 20.5349C51.0927 20.2458 50.7005 20.0834 50.2917 20.0834ZM48.75 44.75H42.5833V26.25H48.75V44.75ZM34.875 20.0834C34.4661 20.0834 34.074 20.2458 33.7849 20.5349C33.4958 20.824 33.3333 21.2162 33.3333 21.625V24.7084H28.7083C28.2995 24.7084 27.9073 24.8708 27.6182 25.1599C27.3291 25.449 27.1667 25.8412 27.1667 26.25V44.75C27.1667 45.1589 27.3291 45.551 27.6182 45.8402C27.9073 46.1293 28.2995 46.2917 28.7083 46.2917H33.3333V49.375C33.3333 49.7839 33.4958 50.176 33.7849 50.4652C34.074 50.7543 34.4661 50.9167 34.875 50.9167C35.2839 50.9167 35.676 50.7543 35.9651 50.4652C36.2542 50.176 36.4167 49.7839 36.4167 49.375V21.625C36.4167 21.2162 36.2542 20.824 35.9651 20.5349C35.676 20.2458 35.2839 20.0834 34.875 20.0834ZM33.3333 43.2084H30.25V27.7917H33.3333V43.2084Z" fill="white"/>
</g>
<defs>
<filter id="filter0_d_2_16" x="0" y="0" width="79" height="79" filterUnits="userSpaceOnUse" color-interpolation-filters="sRGB">
<feFlood flood-opacity="0" result="BackgroundImageFix"/>
<feColorMatrix in="SourceAlpha" type="matrix" values="0 0 0 0 0 0 0 0 0 0 0 0 0 0 0 0 0 0 127 0" result="hardAlpha"/>
<feOffset dy="4"/>
<feGaussianBlur stdDeviation="2"/>
<feComposite in2="hardAlpha" operator="out"/>
<feColorMatrix type="matrix" values="0 0 0 0 0 0 0 0 0 0 0 0 0 0 0 0 0 0 0.25 0"/>
<feBlend mode="normal" in2="BackgroundImageFix" result="effect1_dropShadow_2_16"/>
<feBlend mode="normal" in="SourceGraphic" in2="effect1_dropShadow_2_16" result="shape"/>
</filter>
</defs>
</svg>
